<svg width="43" height="43" viewBox="0 0 43 43" fill="none" xmlns="http://www.w3.org/2000/svg">
<g filter="url(#filter0_d_224_1523)">
<circle cx="21.5" cy="17.5" r="17.5" fill="#FFBE55"/>
</g>
<path d="M31.2606 16.6245H15.4927L20.3188 10.8279C20.5445 10.5564 20.6531 10.2064 20.6207 9.85483C20.5882 9.50327 20.4175 9.17899 20.146 8.95332C19.8745 8.72766 19.5245 8.61909 19.1729 8.6515C18.8213 8.68391 18.4971 8.85465 18.2714 9.12616L11.6239 17.1032C11.5792 17.1666 11.5392 17.2333 11.5042 17.3026C11.5042 17.3691 11.5042 17.4089 11.4112 17.4754C11.3509 17.6279 11.3194 17.7901 11.3181 17.954C11.3194 18.1179 11.3509 18.2802 11.4112 18.4327C11.4112 18.4991 11.4112 18.539 11.5042 18.6055C11.5392 18.6748 11.5792 18.7415 11.6239 18.8049L18.2714 26.7819C18.3964 26.932 18.5529 27.0527 18.7299 27.1354C18.9068 27.2181 19.0998 27.2609 19.2951 27.2605C19.6058 27.2611 19.9068 27.153 20.146 26.9548C20.2806 26.8431 20.3919 26.7061 20.4735 26.5514C20.555 26.3967 20.6053 26.2274 20.6213 26.0533C20.6374 25.8792 20.6189 25.7036 20.567 25.5366C20.5151 25.3696 20.4308 25.2145 20.3188 25.0802L15.4927 19.2835H31.2606C31.6132 19.2835 31.9514 19.1435 32.2007 18.8941C32.45 18.6448 32.5901 18.3066 32.5901 17.954C32.5901 17.6014 32.45 17.2633 32.2007 17.0139C31.9514 16.7646 31.6132 16.6245 31.2606 16.6245Z" fill="#231F20"/>
<defs>
<filter id="filter0_d_224_1523" x="0" y="0" width="43" height="43" filterUnits="userSpaceOnUse" color-interpolation-filters="sRGB">
<feFlood flood-opacity="0" result="BackgroundImageFix"/>
<feColorMatrix in="SourceAlpha" type="matrix" values="0 0 0 0 0 0 0 0 0 0 0 0 0 0 0 0 0 0 127 0" result="hardAlpha"/>
<feOffset dy="4"/>
<feGaussianBlur stdDeviation="2"/>
<feComposite in2="hardAlpha" operator="out"/>
<feColorMatrix type="matrix" values="0 0 0 0 0 0 0 0 0 0 0 0 0 0 0 0 0 0 0.25 0"/>
<feBlend mode="normal" in2="BackgroundImageFix" result="effect1_dropShadow_224_1523"/>
<feBlend mode="normal" in="SourceGraphic" in2="effect1_dropShadow_224_1523" result="shape"/>
</filter>
</defs>
</svg>
