<svg width="27" height="25" viewBox="0 0 27 25" fill="none" xmlns="http://www.w3.org/2000/svg">
<path d="M0.713379 0.78125C0.713379 0.57405 0.797649 0.375336 0.94765 0.228823C1.09765 0.08231 1.3011 0 1.51323 0L6.31234 0C6.52447 0 6.72792 0.08231 6.87792 0.228823C7.02792 0.375336 7.11219 0.57405 7.11219 0.78125C7.11219 0.98845 7.02792 1.18716 6.87792 1.33368C6.72792 1.48019 6.52447 1.5625 6.31234 1.5625H2.31308V5.46875C2.31308 5.67595 2.22881 5.87466 2.07881 6.02118C1.92881 6.16769 1.72536 6.25 1.51323 6.25C1.3011 6.25 1.09765 6.16769 0.94765 6.02118C0.797649 5.87466 0.713379 5.67595 0.713379 5.46875V0.78125ZM19.9098 0.78125C19.9098 0.57405 19.9941 0.375336 20.1441 0.228823C20.2941 0.08231 20.4975 0 20.7097 0L25.5088 0C25.7209 0 25.9243 0.08231 26.0743 0.228823C26.2243 0.375336 26.3086 0.57405 26.3086 0.78125V5.46875C26.3086 5.67595 26.2243 5.87466 26.0743 6.02118C25.9243 6.16769 25.7209 6.25 25.5088 6.25C25.2966 6.25 25.0932 6.16769 24.9432 6.02118C24.7932 5.87466 24.7089 5.67595 24.7089 5.46875V1.5625H20.7097C20.4975 1.5625 20.2941 1.48019 20.1441 1.33368C19.9941 1.18716 19.9098 0.98845 19.9098 0.78125ZM1.51323 18.75C1.72536 18.75 1.92881 18.8323 2.07881 18.9788C2.22881 19.1253 2.31308 19.324 2.31308 19.5312V23.4375H6.31234C6.52447 23.4375 6.72792 23.5198 6.87792 23.6663C7.02792 23.8128 7.11219 24.0115 7.11219 24.2188C7.11219 24.426 7.02792 24.6247 6.87792 24.7712C6.72792 24.9177 6.52447 25 6.31234 25H1.51323C1.3011 25 1.09765 24.9177 0.94765 24.7712C0.797649 24.6247 0.713379 24.426 0.713379 24.2188V19.5312C0.713379 19.324 0.797649 19.1253 0.94765 18.9788C1.09765 18.8323 1.3011 18.75 1.51323 18.75ZM25.5088 18.75C25.7209 18.75 25.9243 18.8323 26.0743 18.9788C26.2243 19.1253 26.3086 19.324 26.3086 19.5312V24.2188C26.3086 24.426 26.2243 24.6247 26.0743 24.7712C25.9243 24.9177 25.7209 25 25.5088 25H20.7097C20.4975 25 20.2941 24.9177 20.1441 24.7712C19.9941 24.6247 19.9098 24.426 19.9098 24.2188C19.9098 24.0115 19.9941 23.8128 20.1441 23.6663C20.2941 23.5198 20.4975 23.4375 20.7097 23.4375H24.7089V19.5312C24.7089 19.324 24.7932 19.1253 24.9432 18.9788C25.0932 18.8323 25.2966 18.75 25.5088 18.75ZM7.11219 6.25H8.71189V7.8125H7.11219V6.25Z" fill="black"/>
<path d="M11.9111 3.125H3.9126V10.9375H11.9111V3.125ZM5.5123 4.6875H10.3114V9.375H5.5123V4.6875ZM8.7117 17.1875H7.112V18.75H8.7117V17.1875Z" fill="black"/>
<path d="M11.9111 14.0625H3.9126V21.875H11.9111V14.0625ZM5.5123 15.625H10.3114V20.3125H5.5123V15.625ZM18.3099 6.25H19.9096V7.8125H18.3099V6.25Z" fill="black"/>
<path d="M15.1109 3.125H23.1094V10.9375H15.1109V3.125ZM16.7106 4.6875V9.375H21.5097V4.6875H16.7106ZM13.5112 12.5V15.625H15.1109V17.1875H13.5112V18.75H16.7106V15.625H18.3103V18.75H19.91V17.1875H23.1094V15.625H18.3103V12.5H13.5112ZM16.7106 15.625H15.1109V14.0625H16.7106V15.625ZM23.1094 18.75H21.5097V20.3125H18.3103V21.875H23.1094V18.75ZM16.7106 21.875V20.3125H13.5112V21.875H16.7106Z" fill="black"/>
<path d="M19.9097 14.0625H23.1091V12.5H19.9097V14.0625Z" fill="black"/>
</svg>
