<svg width="64" height="64" viewBox="0 0 64 64" fill="none" xmlns="http://www.w3.org/2000/svg">
<path d="M63.9461 32.084C63.9461 27.944 63.1222 23.8446 61.5214 20.0198C59.9206 16.1949 57.5742 12.7196 54.6163 9.79218C51.6584 6.86477 48.1469 4.54263 44.2822 2.95832C40.4175 1.37402 36.2753 0.558594 32.0922 0.558594C27.9091 0.558594 23.7669 1.37402 19.9022 2.95832C16.0375 4.54263 12.526 6.86477 9.56808 9.79218C6.61017 12.7196 4.26383 16.1949 2.66302 20.0198C1.06221 23.8446 0.238281 27.944 0.238281 32.084C0.238281 40.4451 3.59431 48.4637 9.56808 54.3759C15.5419 60.288 23.644 63.6094 32.0922 63.6094C40.5404 63.6094 48.6426 60.288 54.6163 54.3759C60.5901 48.4637 63.9461 40.4451 63.9461 32.084ZM5.54727 32.084C5.54727 25.1165 8.34396 18.4343 13.3221 13.5075C18.3002 8.58068 25.0521 5.81283 32.0922 5.81283C39.1324 5.81283 45.8842 8.58068 50.8623 13.5075C55.8405 18.4343 58.6371 25.1165 58.6371 32.084C58.6371 39.0516 55.8405 45.7338 50.8623 50.6606C45.8842 55.5874 39.1324 58.3552 32.0922 58.3552C25.0521 58.3552 18.3002 55.5874 13.3221 50.6606C8.34396 45.7338 5.54727 39.0516 5.54727 32.084ZM26.7832 25.5162C26.7832 26.0337 26.6802 26.5462 26.4801 27.0243C26.28 27.5024 25.9867 27.9368 25.617 28.3027C25.2473 28.6686 24.8083 28.9589 24.3252 29.1569C23.8421 29.355 23.3244 29.4569 22.8015 29.4569C22.2786 29.4569 21.7608 29.355 21.2777 29.1569C20.7946 28.9589 20.3557 28.6686 19.986 28.3027C19.6162 27.9368 19.3229 27.5024 19.1228 27.0243C18.9227 26.5462 18.8197 26.0337 18.8197 25.5162C18.8197 24.4711 19.2392 23.4688 19.986 22.7297C20.7327 21.9907 21.7455 21.5755 22.8015 21.5755C23.8575 21.5755 24.8703 21.9907 25.617 22.7297C26.3637 23.4688 26.7832 24.4711 26.7832 25.5162ZM45.3647 25.5162C45.3647 26.5614 44.9452 27.5637 44.1985 28.3027C43.4517 29.0417 42.439 29.4569 41.3829 29.4569C40.3269 29.4569 39.3141 29.0417 38.5674 28.3027C37.8207 27.5637 37.4012 26.5614 37.4012 25.5162C37.4012 24.4711 37.8207 23.4688 38.5674 22.7297C39.3141 21.9907 40.3269 21.5755 41.3829 21.5755C42.439 21.5755 43.4517 21.9907 44.1985 22.7297C44.9452 23.4688 45.3647 24.4711 45.3647 25.5162ZM22.175 46.9115C27.0858 41.1528 37.0933 41.1528 42.0094 46.9115C42.2288 47.1908 42.5029 47.4233 42.8153 47.5952C43.1277 47.7672 43.4719 47.8748 43.8274 47.9119C44.1829 47.9489 44.5423 47.9144 44.884 47.8107C45.2257 47.7069 45.5427 47.5358 45.816 47.3078C46.0893 47.0798 46.3133 46.7996 46.4745 46.4838C46.6356 46.1681 46.7307 45.8234 46.754 45.4704C46.7773 45.1174 46.7283 44.7633 46.61 44.4295C46.4917 44.0957 46.3065 43.789 46.0655 43.5278C39.0311 35.2786 25.1481 35.2786 18.119 43.5278C17.8779 43.789 17.6927 44.0957 17.5744 44.4295C17.4561 44.7633 17.4071 45.1174 17.4304 45.4704C17.4537 45.8234 17.5488 46.1681 17.71 46.4838C17.8711 46.7996 18.0951 47.0798 18.3684 47.3078C18.6417 47.5358 18.9587 47.7069 19.3004 47.8107C19.6421 47.9144 20.0015 47.9489 20.357 47.9119C20.7125 47.8748 21.0567 47.7672 21.3691 47.5952C21.6815 47.4233 21.9557 47.1908 22.175 46.9115Z" fill="#F21E1E" fill-opacity="0.93"/>
</svg>
